<?xml version="1.0" encoding="UTF-8"?>
<svg id="Calque_2" data-name="Calque 2" xmlns="http://www.w3.org/2000/svg" viewBox="0 0 12.36 12.52">
  <defs>
    <style>
      .cls-1 {
        fill: #3336b2;
      }

      .cls-1, .cls-2 {
        stroke-width: 0px;
      }

      .cls-2 {
        fill: #2125ab;
      }
    </style>
  </defs>
  <g id="Calque_1-2" data-name="Calque 1">
    <g>
      <path class="cls-1" d="m6.16,8c1.6,0,3.2,0,4.8,0,.43,0,.93-.04,1.12.48.16.43-.14.73-.41,1.01-.84.88-1.68,1.75-2.54,2.61-.32.32-.66.64-1.12.19-.38-.38-.14-.68.11-1,.42-.55,1.17-1.07.92-1.47-.38-.61-1.24-.49-2.02-.51-1.98-.06-3.97-.02-5.96-.02-.43,0-1,.07-1.06-.51-.07-.67.5-.76,1.02-.76,1.7-.01,3.41,0,5.13,0Z"/>
      <path class="cls-2" d="m2.48,3.21c3.01,0,5.65-.02,8.28.02.58,0,1.61-.13,1.61.6s-.93.72-1.53.72c-3.05.02-6.1.01-9.15,0-.48,0-1.05.15-1.32-.43-.28-.6.27-.9.59-1.24.76-.81,1.53-1.61,2.32-2.38.28-.28.59-.83,1.06-.27.34.41.15.81-.2,1.17-.49.49-.94,1.01-1.65,1.8Z"/>
    </g>
  </g>
</svg>