<?xml version="1.0" encoding="UTF-8"?>
<svg id="Calque_2" data-name="Calque 2" xmlns="http://www.w3.org/2000/svg" viewBox="0 0 159.9 145.89">
  <defs>
    <style>
      .cls-1 {
        fill: #020202;
      }

      .cls-1, .cls-2 {
        stroke-width: 0px;
      }
    </style>
  </defs>
  <g id="Calque_1-2" data-name="Calque 1">
    <g>
      <path class="cls-2" d="m0,143.56c1.35-4.63,2.73-9.25,4.05-13.89,2.4-8.45,4.76-16.91,7.16-25.36,1.92-6.77,6.29-11.1,13.05-13.01,9.05-2.56,18.12-5.06,27.16-7.66.76-.22,1.56-.82,2.02-1.46,1.84-2.59,3.54-5.27,5.31-7.9.29-.43.55-1.01.96-1.2,1.47-.66,1.06-1.59.61-2.67-1.02-2.44-1.96-4.91-2.99-7.35-.22-.53-.56-1.2-1.03-1.41-3.5-1.6-5.38-4.49-6.45-8-1.09-3.59-1.62-7.22-.09-10.83.28-.65.66-1.46,1.23-1.75,1.82-.96,1.31-2.42,1.08-3.86-1.01-6.36-.89-12.69,1.11-18.83,2.92-8.99,9.3-14.53,18.24-17.04,10.25-2.88,19.71-1.07,27.97,5.79,5.32,4.41,7.83,10.37,8.71,17.1.64,4.89.41,9.76-.39,14.62-.07.44-.01,1.16.26,1.35,2.84,1.94,3.25,4.88,3.12,7.89-.2,4.35-1.29,8.43-4.52,11.64-.29.29-.59.65-.96.78-2.17.77-2.82,2.46-3.32,4.56-.59,2.51-1.67,4.9-2.49,7.21,2.23,3.32,4.45,6.69,6.76,9.99.43.61,1.18,1.18,1.9,1.38,8.84,2.53,17.69,5.05,26.57,7.45,7.33,1.99,11.94,6.57,13.96,13.89,3.48,12.57,7.05,25.12,10.58,37.68.75,2.68.31,3.25-2.52,3.25-51.39,0-102.78,0-154.17,0-1.1,0-2.22.07-2.88-1.08,0-.42,0-.83,0-1.25Zm73.37-.96c-6.93-18.76-13.78-37.32-20.65-55.92-.38.09-.63.14-.87.21-8.66,2.42-17.3,4.92-25.99,7.23-6.27,1.67-10.15,5.5-11.83,11.77-1.83,6.88-3.83,13.71-5.76,20.57-1.5,5.35-3.01,10.69-4.52,16.09h19.96c0-.69,0-1.25,0-1.82,0-7.86,0-15.72,0-23.58,0-.47-.15-1.04.07-1.38.34-.55.97-1.33,1.41-1.29.58.05,1.2.73,1.61,1.28.23.31.07.91.07,1.38,0,7.91,0,15.83,0,23.74,0,.56,0,1.11,0,1.73h46.49Zm25.92-117.98c-6.4,1.81-12.83,2.31-19.28,2.33-15.41.49-12.07-6.19-17.12-7.76-.89.18-1.06,1-1.17,1.39-1.37,4.85-2.93,15.35-5.56,19.99-.4.71-.89,1.79-1.57,2.01-1.63.53-2.24,1.63-2.4,3.1-.37,3.34.18,6.53,1.77,9.51.83,1.56,1.94,2.87,3.66,3.45,1.61.54,2.32,1.64,2.75,3.24,1.4,5.15,3.83,9.74,7.59,13.61,6.97,7.16,14.71,7.8,22.77,1.97,5.48-3.96,7.96-9.58,9.14-15.94.26-1.41.95-2.11,2.16-2.75,1.2-.63,2.47-1.46,3.25-2.53,2.35-3.21,2.99-6.96,2.42-10.83-.14-.92-.95-2.22-1.74-2.48-1.45-.47-1.91-1.34-2.26-2.61-1.42-5.16-2.89-10.3-4.41-15.7Zm-12.65,117.92h46.45c0-.7,0-1.26,0-1.83,0-7.86,0-15.72,0-23.59,0-.47-.16-1.07.07-1.38.41-.55,1.03-1.23,1.62-1.28.44-.04,1.07.75,1.41,1.3.21.34.07.91.07,1.38,0,7.91,0,15.83,0,23.74,0,.55,0,1.11,0,1.7h19.9c-.11-.49-.18-.9-.29-1.29-3.38-12.01-6.78-24.01-10.14-36.02-1.63-5.83-5.4-9.44-11.2-11.03-3.76-1.03-7.51-2.1-11.26-3.14-5.3-1.47-10.59-2.95-16-4.45-6.89,18.65-13.74,37.21-20.63,55.88Zm18.21-110.08c1.28-12.36-3.33-21.77-12.57-26.33-9.82-4.85-22-3.29-29.84,3.52-6.69,5.82-8.55,16.53-7.35,23,.96-3.45,3.24-12.59,4.84-15.56.72-1.33,1.42-1.94,2.97-1.63,3.96.8,6.28,7.39,9.56,7.91,8.9.82,17.77.5,26.45-2,2.22-.64,2.67-.42,3.31,1.86.87,3.07,1.75,6.15,2.63,9.22Zm-24.83,57.69c-2.93-.6-5.21.06-6.08,3.26-.18.64-.32,1.4-.15,2.02.64,2.24,1.46,4.44,2.13,6.67.23.77.36,1.65.25,2.44-.73,5.67-1.47,11.34-2.33,16.99-1.4,9.24-1.45,9.23,1.23,16.47.57,1.55.84,3.65,1.97,4.42,1.15.78,3.21.19,4.87.28.92.05,1.38-.24,1.7-1.15,1.13-3.23,2.38-6.43,3.54-9.65.17-.47.25-1.02.18-1.5-.84-6.23-1.66-12.46-2.58-18.68-1.19-8.07-1.22-8.06,1.36-15.92.03-.1.1-.2.09-.3-.06-.72,0-1.48-.22-2.16-.78-2.56-2.42-3.82-5.19-3.19-.25.06-.52,0-.78,0Zm13.77,9.84c3.65-5.3,7.08-10.29,10.52-15.3-1.77-2.67-3.49-5.24-4.94-7.42-3.9,3.69-7.73,7.28-11.5,10.93-.27.27-.35,1.08-.15,1.44,1.92,3.38,3.92,6.72,6.06,10.35Zm-27.66-.08c1.76-2.87,3.47-5.53,5.05-8.27,1.6-2.78,1.59-2.86-.68-5.07-3.23-3.14-6.54-6.2-9.88-9.36-1.52,2.29-3.23,4.86-4.97,7.48,3.47,5.04,6.91,10.03,10.47,15.21Zm5.11-1.83c-.21.17-.31.22-.37.31-.94,1.43-1.88,2.87-2.82,4.3-1.4,2.14-2.39,2.16-3.84.09-1.32-1.9-2.63-3.81-3.94-5.71-.09.05-.17.1-.26.14,3.33,8.99,6.65,17.98,9.98,26.97,1.1-6.05,1.79-12.04,2.81-17.98.52-3.01-.81-5.41-1.56-8.13Zm17.58-.17c-1.03,3.05-2.26,5.71-1.54,8.92.75,3.33.99,6.78,1.46,10.18.33,2.37.66,4.73.99,7.09.1,0,.2,0,.3.01,3.31-8.98,6.63-17.96,9.94-26.95-1.55,1.74-2.84,3.62-4.13,5.49-1.52,2.2-2.49,2.2-3.92,0-.99-1.51-1.97-3.04-3.09-4.76Zm-18.07-16.03c-.09.13-.18.27-.26.4,1.46,1.38,2.9,2.77,4.4,4.11.31.28.81.47,1.23.48,2.55.04,5.09.03,7.64.01.35,0,.8-.03,1.02-.24,1.27-1.21,2.49-2.48,3.73-3.73-6.16,2.48-12.02,2.36-17.76-1.04Z"/>
      <path class="cls-2" d="m113.06,139.44c-3.28,0-6.56.01-9.84,0-1.92-.01-2.41-.49-2.42-2.4-.02-3.44-.02-6.87,0-10.31,0-1.94.48-2.4,2.38-2.44.26,0,.52-.03.78,0,1.52.18,2.44-.12,3.11-1.85,1.03-2.65,3.51-3.59,6.26-3.5,2.76.09,4.99,1.24,5.98,3.96.42,1.17.99,1.43,2.14,1.42,3.89-.06,3.89-.01,3.89,3.86,0,2.86,0,5.73,0,8.59,0,2.29-.4,2.68-2.75,2.68-3.18,0-6.35,0-9.53,0Zm-8.92-11.83v8.51h17.9v-8.51h-17.9Zm5.62-3.47h6.56c-1.46-2.64-4.9-2.67-6.56,0Z"/>
    </g>
    <path class="cls-1" d="m80.38,67.32c-3.21,0-5.32-1.19-6.55-2.23-.77-.65-.69-1.87.17-2.4l1.04-.65-1.27.79.21-.14c.55-.35,1.27-.33,1.77.09.78.67,2.26,1.52,4.63,1.52s4.17-.83,5.12-1.48c.57-.39,1.33-.36,1.84.09l.02.02c.73.64.65,1.8-.15,2.34-1.34.92-3.63,2.02-6.83,2.02Z"/>
    <circle class="cls-2" cx="91.53" cy="45.29" r="3.02"/>
    <circle class="cls-2" cx="69.8" cy="45.29" r="3.02"/>
  </g>
</svg>