<?xml version="1.0" encoding="UTF-8"?>
<svg id="Calque_2" data-name="Calque 2" xmlns="http://www.w3.org/2000/svg" viewBox="0 0 24.08 24.07">
  <defs>
    <style>
      .cls-1 {
        fill: #2326a6;
        stroke-width: 0px;
      }
    </style>
  </defs>
  <g id="Calque_1-2" data-name="Calque 1">
    <g>
      <path class="cls-1" d="m20,6.88c1.45-.07,3.27,1.15,3.87,2.61.6,1.45-.19,2.39-1.16,3.33-1.84,1.76-3.64,3.57-5.4,5.41-.63.66-1.04.73-1.71.03-3.22-3.29-6.46-6.55-9.75-9.76-.77-.75-.64-1.17.06-1.84,1.92-1.84,3.8-3.72,5.65-5.64.91-.94,1.89-1.34,3.12-.77,1.53.71,2.7,2.43,2.56,3.7-.25,2.29.45,3.02,2.77,2.92Z"/>
      <path class="cls-1" d="m10.5,24.06c-.91-.01-1.51-.48-2.07-1.04-2.47-2.46-4.96-4.91-7.41-7.4-1.36-1.38-1.34-2.65,0-4.05q2.65-2.79,5.34-.05c2.57,2.6,5.13,5.22,7.79,7.73.94.89.91,1.42-.04,2.19-.73.59-1.35,1.31-2.03,1.97-.45.45-.98.71-1.58.66Z"/>
    </g>
  </g>
</svg>