<?xml version="1.0" encoding="UTF-8"?>
<svg id="Calque_2" data-name="Calque 2" xmlns="http://www.w3.org/2000/svg" viewBox="0 0 171.91 171.91">
  <defs>
    <style>
      .cls-1 {
        fill: #fdfdfd;
      }

      .cls-1, .cls-2 {
        stroke-width: 0px;
      }

      .cls-2 {
      fill:#6A6D71;
      }
    </style>
  </defs>
  <g id="Calque_1-2" data-name="Calque 1">
    <circle class="cls-2" cx="86.55" cy="85.78" r="79.02"/>
    <path class="cls-1" d="m85.96,9c42.43,0,76.96,34.52,76.96,76.96s-34.52,76.96-76.96,76.96S9,128.39,9,85.96,43.52,9,85.96,9m0-9C38.48,0,0,38.48,0,85.96s38.48,85.96,85.96,85.96,85.96-38.48,85.96-85.96S133.43,0,85.96,0h0Z"/>
    <path class="cls-1" d="m73.2,70.57c0-8.42-.04-16.83.02-25.25.03-4.43,1.39-8.32,6.66-7.98,4.48.3,5.57,3.97,5.58,7.89.04,10.82-.6,21.67-.14,32.44.51,11.94,5.31,18.62,13.02,24.33,4.45,3.29,12.97,7.49,9.63,13.38-4.14,7.29-11.55.89-16.38-2.38-20.19-13.69-18.15-24.67-18.39-42.44Z"/>
  </g>
</svg>