<?xml version="1.0" encoding="UTF-8"?>
<svg id="Calque_2" data-name="Calque 2" xmlns="http://www.w3.org/2000/svg" viewBox="0 0 144.4 152.69">
  <defs>
    <style>
      .cls-1 {
        fill: #aeaeae;
      }

      .cls-1, .cls-2 {
        stroke-width: 0px;
      }

      .cls-2 {
        fill: #fcfcfc;
      }
    </style>
  </defs>
  <g id="Calque_1-2" data-name="Calque 1">
    <g>
      <path class="cls-1" d="m.22,101.85c-.22-54.35-4.25-44.88,36.4-77.41,8.36-6.69,16.94-13.46,25.25-20.4,6.62-5.53,12.97-5.3,19.52.16,17.87,14.91,35.93,29.6,53.68,44.66,7.69,6.53,8.91,16.06,9.08,25.34.36,19.7.31,39.41.04,59.11-.18,13.14-6.23,18.99-19.41,19.23-34.7.64-35.58.06-34.99-32.74.49-27.17.11-27-27.46-25.33-6.57.4-9.45,2.58-9.26,9.35.3,10.85-.1,21.72.1,32.57.2,10.61-5.45,15.32-15.35,16.16-.8.07-1.61.02-2.41.03C.16,153.19-.73,152.31.2,118.74c.16-5.63.02-11.26.02-16.89Zm135.43-.08c0-10.45-.19-20.91.07-31.35.18-7.44-2.59-13.33-8.13-17.97-15.7-13.13-31.66-25.96-47.14-39.34-6.89-5.96-12.37-5.23-18.89.43-14.85,12.89-30.05,25.37-45.14,37.98-6.24,5.22-9.36,11.6-9.19,19.97.33,15.67,0,31.35.1,47.03.17,28.07-3.89,25.4,27.26,25.71,8.13.08,11.85-2.83,11.54-11.26-.38-10.44.13-20.91-.13-31.35-.22-8.89,4.47-14.5,12.53-14.83,29.69-1.21,42.6-4.53,40.15,31.75-.03.4-.01.8,0,1.21.61,27.65-5.02,24.1,25.35,24.39.8,0,1.61-.04,2.41-.02,6.64.11,9.33-3.37,9.25-9.77-.12-10.85-.03-21.71-.03-32.56Z"/>
      <path class="cls-2" d="m135.65,101.77c0,10.85-.09,21.71.03,32.56.07,6.4-2.61,9.87-9.25,9.77-.8-.01-1.61.03-2.41.02-30.37-.29-24.74,3.26-25.35-24.39,0-.4-.02-.81,0-1.21,2.46-36.27-10.45-32.95-40.15-31.75-8.06.33-12.75,5.94-12.53,14.83.25,10.45-.25,20.91.13,31.35.3,8.43-3.41,11.34-11.54,11.26-31.15-.31-27.09,2.36-27.26-25.71-.1-15.68.23-31.36-.1-47.03-.17-8.37,2.94-14.75,9.19-19.97,15.09-12.61,30.29-25.09,45.14-37.98,6.52-5.66,12-6.39,18.89-.43,15.48,13.38,31.44,26.21,47.14,39.34,5.55,4.64,8.32,10.53,8.13,17.97-.26,10.45-.07,20.9-.07,31.35Z"/>
    </g>
  </g>
</svg>