<?xml version="1.0" encoding="UTF-8"?>
<svg id="Calque_2" data-name="Calque 2" xmlns="http://www.w3.org/2000/svg" viewBox="0 0 126.49 103.63">
  <defs>
    <style>
      .cls-1 {
        fill: #a6a6a6;
        stroke-width: 0px;
      }
    </style>
  </defs>
  <g id="Calque_1-2" data-name="Calque 1">
    <g>
      <rect class="cls-1" x="3.5" y="3.5" width="119.49" height="8.43" rx="4.21" ry="4.21"/>
      <path class="cls-1" d="m118.78,15.43H7.71C3.46,15.43,0,11.97,0,7.71S3.46,0,7.71,0h111.06c4.25,0,7.71,3.46,7.71,7.71s-3.46,7.71-7.71,7.71ZM7.71,7c-.39,0-.71.32-.71.71s.32.71.71.71h111.06c.39,0,.71-.32.71-.71s-.32-.71-.71-.71H7.71Z"/>
    </g>
    <g>
      <rect class="cls-1" x="3.5" y="46.51" width="119.49" height="8.43" rx="4.21" ry="4.21"/>
      <path class="cls-1" d="m118.78,58.44H7.71c-4.25,0-7.71-3.46-7.71-7.71s3.46-7.71,7.71-7.71h111.06c4.25,0,7.71,3.46,7.71,7.71s-3.46,7.71-7.71,7.71ZM7.71,50.01c-.39,0-.71.32-.71.71s.32.71.71.71h111.06c.39,0,.71-.32.71-.71s-.32-.71-.71-.71H7.71Z"/>
    </g>
    <g>
      <rect class="cls-1" x="3.5" y="91.71" width="119.49" height="8.43" rx="4.21" ry="4.21"/>
      <path class="cls-1" d="m118.78,103.63H7.71c-4.25,0-7.71-3.46-7.71-7.71s3.46-7.71,7.71-7.71h111.06c4.25,0,7.71,3.46,7.71,7.71s-3.46,7.71-7.71,7.71ZM7.71,95.21c-.39,0-.71.32-.71.71s.32.71.71.71h111.06c.39,0,.71-.32.71-.71s-.32-.71-.71-.71H7.71Z"/>
    </g>
  </g>
</svg>