<?xml version="1.0" encoding="utf-8"?>
<!-- Generator: Adobe Illustrator 27.9.1, SVG Export Plug-In . SVG Version: 6.00 Build 0)  -->
<svg version="1.1" id="Calque_2_00000155842992253545166040000006704607095823831740_"
	 xmlns="http://www.w3.org/2000/svg" xmlns:xlink="http://www.w3.org/1999/xlink" x="0px" y="0px" viewBox="0 0 126.5 103.6"
	 style="enable-background:new 0 0 126.5 103.6;" xml:space="preserve">
<style type="text/css">
	.st0{fill:#6A6D71;}
</style>
<g>
	<path class="st0" d="M7.7,15.4h111.1l0,0c4.2,0,7.7-3.5,7.7-7.7S123,0,118.8,0H7.7C3.5,0,0,3.5,0,7.7S3.5,15.4,7.7,15.4z"/>
	<path class="st0" d="M118.8,43H7.7C3.5,43,0,46.5,0,50.7s3.5,7.7,7.7,7.7h111.1c4.2,0,7.7-3.5,7.7-7.7S123,43,118.8,43z"/>
	<path class="st0" d="M118.8,88.2H7.7c-4.2,0-7.7,3.5-7.7,7.7s3.5,7.7,7.7,7.7h111.1c4.2,0,7.7-3.5,7.7-7.7S123,88.2,118.8,88.2z"/>
</g>
</svg>
