<?xml version="1.0" encoding="UTF-8"?>
<svg id="Calque_2" data-name="Calque 2" xmlns="http://www.w3.org/2000/svg" viewBox="0 0 163.46 163.19">
  <defs>
    <style>
      .cls-1 {
        fill: #fff;
      }

      .cls-1, .cls-2 {
        stroke-width: 0px;
      }

      .cls-2 {
        fill:#6A6D71;
      }
    </style>
  </defs>
  <g id="Calque_1-2" data-name="Calque 1">
    <g>
      <path class="cls-1" d="m117.89,26.74c-.56,18.53.92,20.3,19.87,20.43,12.59.09,18.33,9.18,23.59,17.9,5.37,8.9-.46,15.67-6.85,21.98-22.32,22-44.13,44.51-66.68,66.26-14.32,13.81-22.8,12.23-33.74.96-16.22-16.71-32.63-33.24-48.61-50.18-7.54-7.99-7.22-16.51.71-24.44C30.6,55.22,54.94,30.69,79.52,6.42c8.64-8.54,16.37-8.61,25.21.1,5.72,5.64,14.42,9.85,13.16,20.22Zm-8.68,5.26c0-1.6.02-3.2,0-4.8-.14-9.52-7.42-13.98-14.14-17.79-6.15-3.49-10.2,2.39-14.11,6.28-11.67,11.57-23.1,23.37-34.96,34.74-4.72,4.53-5.43,7.72-.34,12.68,18.38,17.88,36.56,35.97,54.38,54.41,5.4,5.59,8.71,4.66,13.54-.4,11.34-11.88,22.83-23.66,34.89-34.8,8.6-7.95,7.87-14.18-.18-22-5.22-5.06-10.6-6.04-17.3-6-14.74.08-21.95-7.55-21.78-22.31Zm-14.47,102.86c.59-4.94-2.79-7.02-5.24-9.48-14.17-14.22-28.31-28.47-42.69-42.47-18.79-18.29-12.64-20.11-34.22.94-6.77,6.6-5.99,12.08.24,18.42,14.59,14.86,28.86,30.05,43.34,45.01,4.34,4.48,9.67,11.6,15.35,9.02,9.72-4.42,16.72-13.36,23.23-21.45Z"/>
      <path class="cls-2" d="m109.21,32c-.17,14.76,7.04,22.38,21.78,22.31,6.69-.03,12.08.94,17.3,6,8.05,7.81,8.79,14.05.18,22-12.06,11.14-23.55,22.92-34.89,34.8-4.83,5.06-8.14,5.99-13.54.4-17.82-18.44-36.01-36.53-54.38-54.41-5.09-4.95-4.38-8.15.34-12.68,11.86-11.37,23.29-23.17,34.96-34.74,3.92-3.89,7.97-9.76,14.11-6.28,6.72,3.81,13.99,8.28,14.14,17.79.02,1.6,0,3.2,0,4.8Z"/>
      <path class="cls-2" d="m94.74,134.86c-6.51,8.09-13.5,17.03-23.23,21.45-5.68,2.58-11.01-4.54-15.35-9.02-14.49-14.97-28.75-30.15-43.34-45.01-6.23-6.34-7.01-11.81-.24-18.42,21.58-21.05,15.43-19.23,34.22-.94,14.38,14,28.53,28.25,42.69,42.47,2.45,2.46,5.83,4.54,5.24,9.48Z"/>
    </g>
  </g>
</svg>