<?xml version="1.0" encoding="UTF-8"?>
<svg id="Calque_2" data-name="Calque 2" xmlns="http://www.w3.org/2000/svg" viewBox="0 0 164.8 156.05">
  <defs>
    <style>
      .cls-1 {
        fill: #fbfbfb;
      }

      .cls-1, .cls-2 {
        stroke-width: 0px;
      }

      .cls-2 {
        fill: #ababab;
      }
    </style>
  </defs>
  <g id="Calque_1-2" data-name="Calque 1">
    <g>
      <path class="cls-2" d="m81.05,155.93c-18.9,0-37.79.14-56.69-.03-20.64-.18-30.28-15.22-20.55-33.21C23.86,85.64,44.37,48.83,65.14,12.19c9.4-16.57,28.04-16.14,37.12.65,19.85,36.7,39.54,73.49,58.93,110.43,9.18,17.49.2,32.16-19.84,32.57-20.09.41-40.2.09-60.3.09Zm1.79-8.63c18.06,0,36.13.02,54.19,0,20.02-.03,24.79-7.57,15.48-25.13-17.65-33.27-35.62-66.39-53.32-99.63-3.62-6.8-6.61-14.9-15.71-14.53-8.58.35-12.28,7.86-16.04,14.68C48.7,56.71,29.87,90.69,10.9,124.59c-7.77,13.88-3.12,22.49,12.93,22.65,19.67.21,39.34.05,59.01.05Z"/>
      <path class="cls-1" d="m82.84,147.3c-19.67,0-39.34.15-59.01-.05-16.05-.17-20.7-8.77-12.93-22.65C29.87,90.69,48.7,56.71,67.45,22.69c3.76-6.82,7.45-14.33,16.04-14.68,9.1-.37,12.09,7.73,15.71,14.53,17.7,33.25,35.67,66.36,53.32,99.63,9.32,17.56,4.54,25.09-15.48,25.13-18.06.03-36.13,0-54.19,0Zm6.27-72.65c0-6.8.1-13.6-.04-20.39-.09-4.36-1.52-8.28-6.76-7.98-4.42.26-5.76,3.79-5.78,7.75-.05,14-.03,27.99-.04,41.99,0,4.55,1.4,8.03,6.77,7.76,4.67-.24,5.82-3.57,5.85-7.53.05-7.2.01-14.4,0-21.6Zm-6,57.1c3.27-.63,5.57-2.55,5.69-6.23.14-4.11-1.82-7.15-6.11-7.08-4.26.07-6.2,3.13-5.93,7.25.23,3.66,2.49,5.6,6.35,6.06Z"/>
      <path class="cls-2" d="m89.12,74.65c0,7.2.04,14.4,0,21.6-.03,3.95-1.18,7.29-5.85,7.53-5.37.27-6.77-3.2-6.77-7.76,0-14,0-27.99.04-41.99.01-3.95,1.36-7.49,5.78-7.75,5.24-.31,6.67,3.62,6.76,7.98.14,6.8.04,13.6.04,20.39Z"/>
      <path class="cls-2" d="m83.12,131.75c-3.86-.46-6.11-2.4-6.35-6.06-.26-4.12,1.67-7.18,5.93-7.25,4.28-.07,6.25,2.97,6.11,7.08-.13,3.68-2.42,5.6-5.69,6.23Z"/>
    </g>
  </g>
</svg>